<?xml version="1.0" standalone="no"?>
<!DOCTYPE svg PUBLIC "-//W3C//DTD SVG 20010904//EN"
 "http://www.w3.org/TR/2001/REC-SVG-20010904/DTD/svg10.dtd">
<svg version="1.0" xmlns="http://www.w3.org/2000/svg"
 width="316.000000pt" height="316.000000pt" viewBox="0 0 316.000000 316.000000"
 preserveAspectRatio="xMidYMid meet">
<metadata>
Created by potrace 1.11, written by Peter Selinger 2001-2013
</metadata>
<g transform="translate(0.000000,316.000000) scale(0.100000,-0.100000)"
fill="#000000" stroke="none">
<path d="M1418 2984 c-2 -1 -22 -5 -44 -8 -188 -22 -420 -113 -596 -232 -259
-176 -454 -433 -552 -726 -56 -168 -70 -253 -70 -438 -1 -215 11 -300 65 -465
128 -387 418 -706 785 -864 194 -84 344 -115 559 -115 258 -1 415 32 625 132
402 190 685 545 787 985 35 154 41 392 13 548 -112 617 -575 1072 -1195 1174
-68 11 -368 19 -377 9z m301 -119 c583 -62 1049 -502 1156 -1092 19 -104 13
-381 -10 -478 -9 -38 -18 -79 -20 -89 -8 -37 -58 -161 -93 -231 -150 -304
-444 -558 -762 -660 -101 -32 -103 -32 -205 -50 -108 -19 -363 -14 -470 9
-197 43 -404 142 -563 269 -68 54 -202 201 -254 279 -64 94 -135 238 -167 337
-46 140 -56 217 -56 411 1 176 2 191 33 310 37 143 112 308 194 427 68 100
232 264 328 329 210 142 417 216 650 230 52 4 96 7 97 8 3 3 74 -2 142 -9z"/>
<path d="M2375 1801 c-19 -60 -158 -140 -286 -164 -139 -26 -186 -18 -464 82
l-250 90 -90 -3 c-177 -7 -322 -91 -443 -257 -39 -53 -122 -205 -122 -222 0
-4 10 -11 22 -16 18 -6 31 2 82 53 89 89 207 128 371 121 83 -3 108 -9 335
-90 239 -85 247 -87 335 -87 72 0 104 5 158 26 161 61 287 188 392 395 l27 55
-22 18 c-28 23 -37 23 -45 -1z"/>
</g>
</svg>
